<svg width="29" height="27" viewBox="0 0 29 27" fill="none" xmlns="http://www.w3.org/2000/svg">
<path d="M14.2793 8.90698L18.4306 13.0583L18.4504 12.8409C18.4504 10.6597 16.6779 8.88721 14.4967 8.88721L14.2793 8.90698Z" fill="white"/>
<path d="M14.4967 6.25172C18.1341 6.25172 21.0862 9.20379 21.0862 12.8411C21.0862 13.6912 20.9149 14.5017 20.6183 15.2463L24.4731 19.1011C26.4631 17.4405 28.0314 15.2924 29.0001 12.8411C26.7136 7.05567 21.0928 2.95703 14.4968 2.95703C12.6517 2.95703 10.8858 3.28648 9.24506 3.87953L12.0917 6.71954C12.8362 6.42963 13.6467 6.25172 14.4967 6.25172Z" fill="white"/>
<path d="M1.31786 2.66028L4.32263 5.66505L4.92229 6.26471C2.74778 7.96478 1.02795 10.225 0 12.8409C2.27996 18.6264 7.90729 22.725 14.4967 22.725C16.5395 22.725 18.4899 22.3297 20.2757 21.6114L20.8358 22.1715L24.6774 26.0197L26.3577 24.346L2.99816 0.97998L1.31786 2.66028ZM8.60579 9.9416L10.6419 11.9777C10.5826 12.2611 10.5431 12.5444 10.5431 12.8409C10.5431 15.022 12.3156 16.7946 14.4967 16.7946C14.7933 16.7946 15.0766 16.755 15.3534 16.6957L17.3895 18.7319C16.5131 19.1668 15.5379 19.4304 14.4967 19.4304C10.8594 19.4304 7.90729 16.4783 7.90729 12.8409C7.90729 11.7998 8.17089 10.8246 8.60579 9.9416Z" fill="white"/>
</svg>
