<svg width="26" height="26" viewBox="0 0 26 26" fill="none" xmlns="http://www.w3.org/2000/svg">
<path d="M22.1931 3.80746C17.1162 -1.26887 8.88479 -1.26944 3.80734 3.80746C-1.26956 8.88435 -1.26899 17.1158 3.80734 22.1932C8.88423 27.269 17.1157 27.2696 22.1931 22.1932C27.2695 17.1158 27.2689 8.88491 22.1931 3.80746ZM14.6954 18.6526C14.6954 19.5892 13.9363 20.3483 12.9997 20.3483C12.0631 20.3483 11.304 19.5892 11.304 18.6526V11.8699C11.304 10.9333 12.0631 10.1742 12.9997 10.1742C13.9363 10.1742 14.6954 10.9333 14.6954 11.8699V18.6526ZM12.9697 8.97139C11.993 8.97139 11.3418 8.27955 11.3622 7.42549C11.3418 6.53017 11.993 5.85924 12.9895 5.85924C13.9866 5.85924 14.6174 6.53073 14.6383 7.42549C14.6377 8.27955 13.9871 8.97139 12.9697 8.97139Z" fill="white"/>
</svg>
