<svg width="29" height="29" viewBox="0 0 29 29" fill="none" xmlns="http://www.w3.org/2000/svg">
<path d="M18.125 15.7083C17.4568 15.7083 16.9167 16.2497 16.9167 16.9167V21.75C16.9167 22.4158 16.3753 22.9583 15.7083 22.9583H12.0833V4.83333C12.0833 3.80142 11.426 2.87946 10.4376 2.53629L10.0799 2.41667H15.7083C16.3753 2.41667 16.9167 2.95921 16.9167 3.625V7.25C16.9167 7.917 17.4568 8.45833 18.125 8.45833C18.7932 8.45833 19.3333 7.917 19.3333 7.25V3.625C19.3333 1.62642 17.7069 0 15.7083 0H2.71875C2.67283 0 2.63417 0.0205417 2.58946 0.0265833C2.53146 0.02175 2.47588 0 2.41667 0C1.08387 0 0 1.08387 0 2.41667V24.1667C0 25.1986 0.657333 26.1205 1.64575 26.4637L8.9175 28.8876C9.164 28.9638 9.40929 29 9.66667 29C10.9995 29 12.0833 27.9161 12.0833 26.5833V25.375H15.7083C17.7069 25.375 19.3333 23.7486 19.3333 21.75V16.9167C19.3333 16.2497 18.7932 15.7083 18.125 15.7083Z" fill="#F9F9F9"/>
<path d="M28.646 11.2291L23.8126 6.39577C23.467 6.05019 22.9475 5.94627 22.4955 6.13357C22.0448 6.32086 21.75 6.7619 21.75 7.25007V10.8751H16.9166C16.2496 10.8751 15.7083 11.4164 15.7083 12.0834C15.7083 12.7504 16.2496 13.2917 16.9166 13.2917H21.75V16.9167C21.75 17.4049 22.0448 17.8459 22.4955 18.0332C22.9475 18.2205 23.467 18.1166 23.8126 17.771L28.646 12.9377C29.1184 12.4652 29.1184 11.7016 28.646 11.2291Z" fill="#F9F9F9"/>
</svg>
