<svg width="29" height="29" viewBox="0 0 29 29" fill="none" xmlns="http://www.w3.org/2000/svg">
<path d="M28.2181 12.6136L28.2161 12.6116L16.3864 0.782349C15.8822 0.277893 15.2118 0 14.4987 0C13.7856 0 13.1152 0.277672 12.6108 0.782127L0.787246 12.6054C0.783263 12.6094 0.779281 12.6136 0.775298 12.6176C-0.260163 13.659 -0.258393 15.3487 0.780387 16.3875C1.25497 16.8623 1.88178 17.1373 2.55196 17.1661C2.57917 17.1687 2.6066 17.1701 2.63426 17.1701H3.10575V25.8757C3.10575 27.5984 4.50738 29 6.2305 29H10.8587C11.3277 29 11.7083 28.6197 11.7083 28.1504V21.3252C11.7083 20.5391 12.3477 19.8997 13.1338 19.8997H15.8636C16.6497 19.8997 17.2891 20.5391 17.2891 21.3252V28.1504C17.2891 28.6197 17.6695 29 18.1387 29H22.7669C24.49 29 25.8917 27.5984 25.8917 25.8757V17.1701H26.3288C27.0417 17.1701 27.7121 16.8924 28.2168 16.3879C29.2567 15.3474 29.2571 13.6548 28.2181 12.6136Z" fill="white"/>
</svg>
