<svg width="29" height="29" viewBox="0 0 29 29" fill="none" xmlns="http://www.w3.org/2000/svg">
<path d="M28.2749 12.557L28.2727 12.5548L16.443 0.725488C15.9387 0.221032 15.2683 -0.0566406 14.5552 -0.0566406C13.8422 -0.0566406 13.1718 0.221032 12.6673 0.725488L0.843766 12.5488C0.839784 12.5528 0.83558 12.557 0.831818 12.561C-0.203645 13.6024 -0.201875 15.2921 0.836907 16.3309C1.31149 16.8057 1.93808 17.0805 2.60826 17.1095C2.63569 17.1121 2.66313 17.1135 2.69079 17.1135H3.16205V25.8189C3.16205 27.5418 4.56391 28.9434 6.28681 28.9434H10.915C11.3843 28.9434 11.7646 28.5629 11.7646 28.0938V21.2686C11.7646 20.4825 12.4042 19.8431 13.1903 19.8431H15.9202C16.7063 19.8431 17.3457 20.4825 17.3457 21.2686V28.0938C17.3457 28.5629 17.726 28.9434 18.1953 28.9434H22.8235C24.5466 28.9434 25.9482 27.5418 25.9482 25.8189V17.1135H26.3854C27.0983 17.1135 27.7687 16.8358 28.2734 16.3311C29.3133 15.2908 29.3137 13.598 28.2749 12.557ZM27.0717 15.1297C26.8883 15.3131 26.6445 15.4142 26.3854 15.4142H25.0986C24.6293 15.4142 24.249 15.7946 24.249 16.2639V25.8189C24.249 26.6048 23.6096 27.2442 22.8235 27.2442H19.0449V21.2686C19.0449 19.5457 17.6433 18.1438 15.9202 18.1438H13.1903C11.4672 18.1438 10.0654 19.5457 10.0654 21.2686V27.2442H6.28681C5.50092 27.2442 4.86128 26.6048 4.86128 25.8189V16.2639C4.86128 15.7946 4.48094 15.4142 4.01166 15.4142H2.74698C2.73371 15.4134 2.72065 15.4127 2.70716 15.4125C2.45404 15.4081 2.21664 15.3076 2.03875 15.1295C1.66041 14.7512 1.66041 14.1354 2.03875 13.7568L2.03986 13.7557L13.8691 1.92689C14.0523 1.74347 14.2959 1.64258 14.5552 1.64258C14.8143 1.64258 15.0579 1.74347 15.2414 1.92689L27.068 13.7533C27.0698 13.7551 27.0717 13.7568 27.0735 13.7586C27.4499 14.1376 27.4492 14.752 27.0717 15.1297Z" fill="white"/>
</svg>
