<svg width="29" height="29" viewBox="0 0 29 29" fill="none" xmlns="http://www.w3.org/2000/svg">
<g clip-path="url(#clip0)">
<path d="M14.5 7.56772C10.6777 7.56772 7.56775 10.6776 7.56775 14.5C7.56775 18.3224 10.6777 21.4323 14.5 21.4323C18.3224 21.4323 21.4323 18.3224 21.4323 14.5C21.4323 10.6776 18.3224 7.56772 14.5 7.56772ZM14.5 19.6992C11.6333 19.6992 9.30082 17.3668 9.30082 14.5C9.30082 11.6332 11.6333 9.30079 14.5 9.30079C17.3668 9.30079 19.6992 11.6332 19.6992 14.5C19.6992 17.3668 17.3668 19.6992 14.5 19.6992Z" fill="white"/>
<path d="M28.3177 11.198L26.0888 10.7135C25.8949 10.1201 25.6549 9.54129 25.3715 8.98373L26.6054 7.06437C26.8258 6.72143 26.7773 6.27118 26.4892 5.98311L23.0169 2.51077C22.7288 2.2227 22.2786 2.17425 21.9356 2.39462L20.0163 3.62854C19.4587 3.34512 18.8799 3.10506 18.2865 2.91124L17.802 0.682343C17.7155 0.284088 17.3628 0 16.9552 0H12.0448C11.6372 0 11.2845 0.284088 11.198 0.682343L10.7135 2.91124C10.1201 3.10506 9.54129 3.34512 8.98373 3.62854L7.06437 2.39462C6.72143 2.17425 6.27118 2.2227 5.98311 2.51077L2.51077 5.98311C2.2227 6.27118 2.17425 6.72143 2.39462 7.06437L3.62854 8.98373C3.34512 9.54129 3.10506 10.1201 2.91124 10.7135L0.682343 11.198C0.284088 11.2848 0 11.6372 0 12.0448V16.9552C0 17.3628 0.284088 17.7152 0.682343 17.802L2.91124 18.2865C3.10506 18.8799 3.34512 19.4587 3.62854 20.0163L2.39462 21.9356C2.17425 22.2786 2.2227 22.7288 2.51077 23.0169L5.98311 26.4892C6.27118 26.7773 6.72143 26.8258 7.06437 26.6054L8.98373 25.3715C9.54129 25.6549 10.1201 25.8949 10.7135 26.0888L11.198 28.3177C11.2845 28.7159 11.6372 29 12.0448 29H16.9552C17.3628 29 17.7155 28.7159 17.802 28.3177L18.2865 26.0888C18.8799 25.8949 19.4587 25.6549 20.0163 25.3715L21.9356 26.6054C22.2786 26.8258 22.7288 26.7775 23.0169 26.4892L26.4892 23.0169C26.7773 22.7288 26.8258 22.2786 26.6054 21.9356L25.3715 20.0163C25.6549 19.4587 25.8949 18.8799 26.0888 18.2865L28.3177 17.802C28.7159 17.7152 29 17.3628 29 16.9552V12.0448C29 11.6372 28.7159 11.2848 28.3177 11.198ZM27.2669 16.2567L25.2232 16.701C24.9093 16.7694 24.6588 17.0057 24.5725 17.315C24.3479 18.1206 24.0249 18.8996 23.6125 19.6304C23.4545 19.9103 23.4643 20.2546 23.6382 20.5249L24.7699 22.2852L22.2854 24.7699L20.5249 23.6382C20.2546 23.4643 19.9103 23.4545 19.6306 23.6125C18.8996 24.0249 18.1206 24.3479 17.315 24.5725C17.0057 24.6588 16.7694 24.9093 16.701 25.2232L16.2567 27.2669H12.7433L12.299 25.2232C12.2306 24.9093 11.9943 24.6588 11.685 24.5725C10.8794 24.3479 10.1004 24.0249 9.3696 23.6125C9.08971 23.4545 8.74545 23.4645 8.47507 23.6382L6.71479 24.7699L4.23035 22.2852L5.36183 20.5249C5.53574 20.2546 5.54569 19.9103 5.38772 19.6304C4.9753 18.8996 4.65228 18.1206 4.42748 17.315C4.34119 17.0057 4.09096 16.7694 3.777 16.701L1.73307 16.2567V12.7433L3.77678 12.299C4.09074 12.2306 4.34119 11.9943 4.42748 11.685C4.65205 10.8794 4.97508 10.1004 5.3875 9.3696C5.54547 9.08971 5.53574 8.74545 5.36183 8.47507L4.23013 6.71479L6.71457 4.23013L8.47507 5.36183C8.74545 5.53574 9.08971 5.54547 9.36938 5.3875C10.1004 4.97508 10.8794 4.65205 11.685 4.42748C11.9943 4.34119 12.2306 4.09074 12.299 3.77678L12.7433 1.73307H16.2567L16.701 3.77678C16.7694 4.09074 17.0057 4.34119 17.315 4.42748C18.1206 4.65205 18.8996 4.97508 19.6304 5.3875C19.9103 5.54547 20.2546 5.53551 20.5249 5.36183L22.2852 4.23013L24.7697 6.71479L23.6382 8.47507C23.4643 8.74545 23.4543 9.08971 23.6123 9.3696C24.0249 10.1004 24.3477 10.8794 24.5725 11.685C24.6588 11.9943 24.909 12.2306 25.223 12.299L27.2669 12.7433V16.2567Z" fill="white"/>
</g>
<defs>
<clipPath id="clip0">
<rect width="29" height="29" fill="white"/>
</clipPath>
</defs>
</svg>
