<svg width="29" height="29" viewBox="0 0 29 29" fill="none" xmlns="http://www.w3.org/2000/svg">
<path d="M28.3177 11.198L26.0888 10.7135C25.8949 10.1201 25.6549 9.54129 25.3715 8.98373L26.6054 7.06437C26.8258 6.72143 26.7773 6.27118 26.4892 5.98311L23.0169 2.51077C22.7288 2.2227 22.2786 2.17425 21.9356 2.39462L20.0163 3.62854C19.4587 3.34512 18.8799 3.10506 18.2865 2.91124L17.802 0.682343C17.7155 0.284088 17.3628 0 16.9552 0H12.0448C11.6372 0 11.2845 0.284088 11.198 0.682343L10.7135 2.91124C10.1201 3.10506 9.54129 3.34512 8.98373 3.62854L7.06437 2.39462C6.72143 2.17425 6.27118 2.2227 5.98311 2.51077L2.51077 5.98311C2.2227 6.27118 2.17425 6.72143 2.39462 7.06437L3.62854 8.98373C3.34512 9.54129 3.10506 10.1201 2.91124 10.7135L0.682343 11.198C0.284088 11.2848 0 11.6372 0 12.0448V16.9552C0 17.3628 0.284088 17.7152 0.682343 17.802L2.91124 18.2865C3.10506 18.8799 3.34512 19.4587 3.62854 20.0163L2.39462 21.9356C2.17425 22.2786 2.2227 22.7288 2.51077 23.0169L5.98311 26.4892C6.27118 26.7773 6.72143 26.8258 7.06437 26.6054L8.98373 25.3715C9.54129 25.6549 10.1201 25.8949 10.7135 26.0888L11.198 28.3177C11.2845 28.7159 11.6372 29 12.0448 29H16.9552C17.3628 29 17.7155 28.7159 17.802 28.3177L18.2865 26.0888C18.8799 25.8949 19.4587 25.6549 20.0163 25.3715L21.9356 26.6054C22.2786 26.8258 22.7288 26.7775 23.0169 26.4892L26.4892 23.0169C26.7773 22.7288 26.8258 22.2786 26.6054 21.9356L25.3715 20.0163C25.6549 19.4587 25.8949 18.8799 26.0888 18.2865L28.3177 17.802C28.7159 17.7152 29 17.3628 29 16.9552V12.0448C29 11.6372 28.7159 11.2848 28.3177 11.198ZM19.6992 14.5C19.6992 17.3668 17.3668 19.6992 14.5 19.6992C11.6332 19.6992 9.30079 17.3668 9.30079 14.5C9.30079 11.6332 11.6332 9.30079 14.5 9.30079C17.3668 9.30079 19.6992 11.6332 19.6992 14.5Z" fill="white"/>
</svg>
