<svg width="29" height="29" viewBox="0 0 29 29" fill="none" xmlns="http://www.w3.org/2000/svg">
<path d="M24.7531 4.24691C22.0144 1.50823 18.3731 0 14.5 0C10.6269 0 6.9856 1.50823 4.24691 4.24691C1.50823 6.9856 0 10.6269 0 14.5C0 18.3731 1.50828 22.0143 4.24691 24.7531C6.98555 27.4918 10.6269 29 14.5 29C18.3731 29 22.0144 27.4918 24.7531 24.7531C27.4918 22.0144 29 18.3731 29 14.5C29 10.6269 27.4917 6.98566 24.7531 4.24691ZM14.5 13.5938C16.7487 13.5938 18.5781 15.4232 18.5781 17.6719C18.5781 19.534 17.3231 21.1076 15.6148 21.5938C15.4921 21.6288 15.4062 21.7392 15.4062 21.8668V22.6306C15.4062 23.1187 15.0312 23.5385 14.5438 23.5615C14.0233 23.5859 13.5938 23.1713 13.5938 22.6562V21.8666C13.5938 21.7394 13.5084 21.6289 13.386 21.5941C11.685 21.1104 10.4333 19.5486 10.4219 17.6972C10.4189 17.203 10.8075 16.7802 11.3015 16.766C11.8142 16.7513 12.2344 17.1625 12.2344 17.6719C12.2344 18.9747 13.3398 20.0243 14.6619 19.9318C15.778 19.8538 16.682 18.9497 16.76 17.8337C16.8523 16.5115 15.8028 15.4062 14.5 15.4062C12.2513 15.4062 10.4219 13.5768 10.4219 11.3281C10.4219 9.46595 11.6769 7.89236 13.3852 7.40616C13.5079 7.37121 13.5938 7.26082 13.5938 7.13321V6.36935C13.5938 5.88134 13.9688 5.46146 14.4562 5.43852C14.9767 5.41405 15.4062 5.82872 15.4062 6.34375V7.13338C15.4062 7.26065 15.4916 7.3711 15.614 7.40593C17.315 7.88964 18.5667 9.45139 18.5781 11.3028C18.5811 11.797 18.1925 12.2198 17.6985 12.234C17.1858 12.2487 16.7656 11.8375 16.7656 11.3281C16.7656 10.0253 15.6602 8.97573 14.3381 9.06816C13.222 9.14616 12.318 10.0503 12.24 11.1663C12.1477 12.4885 13.1972 13.5938 14.5 13.5938Z" fill="white"/>
</svg>
