<svg width="53" height="54" viewBox="0 0 53 54" fill="none" xmlns="http://www.w3.org/2000/svg">
<path d="M36 11.8019C35.9216 20.6414 32.0983 30.3745 25.8349 37.287C20.523 43.9472 7.49248 48.287 3.03494 47.787C1.14564 48.1621 1.64671 48.1985 1.14564 48.7083C0.644569 49.2182 0.363064 49.9097 0.363064 50.6308C0.363064 51.3518 0.644569 52.0434 1.14564 52.5532C1.64671 53.0631 2.32632 53.3495 3.03494 53.3495C13.1439 53.359 22.8457 49.297 30.0208 42.0511C37.1959 34.8051 41.105 21.8915 41.1721 11.6054L38.6599 8.26359L36 11.8019ZM25.8349 16.3745L36.5224 1.87453C36.7713 1.53687 37.094 1.26281 37.465 1.07405C37.8361 0.885296 38.2452 0.787025 38.6599 0.787025C39.0747 0.787025 39.4838 0.885296 39.8548 1.07405C40.2258 1.26281 40.5486 1.53687 40.7974 1.87453L51.4849 16.3745C51.9101 16.9514 52.0927 17.6765 51.9925 18.3903C51.8923 19.1041 51.5175 19.7481 50.9506 20.1808C50.3837 20.6134 49.6711 20.7992 48.9696 20.6972C48.2681 20.5952 47.6351 20.2139 47.2099 19.637L38.6599 8.26359L30.1099 19.637C29.8994 19.9227 29.6357 20.1633 29.3337 20.3452C29.0318 20.5271 28.6977 20.6467 28.3503 20.6972C28.003 20.7477 27.6492 20.7281 27.3093 20.6395C26.9694 20.5509 26.65 20.395 26.3693 20.1808C25.8024 19.7481 25.4276 19.1041 25.3274 18.3903C25.2778 18.0368 25.2971 17.6769 25.3842 17.331C25.4712 16.9852 25.6244 16.6602 25.8349 16.3745Z" fill="black"/>
</svg>
