<svg width="14" height="16" viewBox="0 0 14 16" fill="none" xmlns="http://www.w3.org/2000/svg">
<path d="M11.9095 2H9.12217V1.5C9.12217 0.672906 8.44013 0 7.60181 0H5.57466C4.73634 0 4.0543 0.672906 4.0543 1.5V2H1.26697C0.568362 2 0 2.56075 0 3.25V5C0 5.27612 0.226914 5.5 0.506787 5.5H0.783747L1.22158 14.5713C1.26025 15.3725 1.92731 16 2.7402 16H10.4363C11.2492 16 11.9163 15.3725 11.9549 14.5713L12.3927 5.5H12.6697C12.9496 5.5 13.1765 5.27612 13.1765 5V3.25C13.1765 2.56075 12.6081 2 11.9095 2ZM5.06787 1.5C5.06787 1.22431 5.29523 1 5.57466 1H7.60181C7.88124 1 8.1086 1.22431 8.1086 1.5V2H5.06787V1.5ZM1.01357 3.25C1.01357 3.11216 1.12725 3 1.26697 3H11.9095C12.0492 3 12.1629 3.11216 12.1629 3.25V4.5C12.0067 4.5 1.66077 4.5 1.01357 4.5V3.25ZM10.9425 14.5238C10.9296 14.7908 10.7072 15 10.4363 15H2.7402C2.46923 15 2.24687 14.7908 2.23401 14.5238L1.79846 5.5H11.378L10.9425 14.5238Z" fill="#CA3732"/>
<path d="M6.58809 14C6.86796 14 7.09487 13.7761 7.09487 13.5V7C7.09487 6.72387 6.86796 6.5 6.58809 6.5C6.30821 6.5 6.0813 6.72387 6.0813 7V13.5C6.0813 13.7761 6.30818 14 6.58809 14Z" fill="#CA3732"/>
<path d="M9.12202 14C9.4019 14 9.62881 13.7761 9.62881 13.5V7C9.62881 6.72387 9.4019 6.5 9.12202 6.5C8.84215 6.5 8.61523 6.72387 8.61523 7V13.5C8.61523 13.7761 8.84212 14 9.12202 14Z" fill="#CA3732"/>
<path d="M4.05439 14C4.33427 14 4.56118 13.7761 4.56118 13.5V7C4.56118 6.72387 4.33427 6.5 4.05439 6.5C3.77452 6.5 3.54761 6.72387 3.54761 7V13.5C3.54761 13.7761 3.77449 14 4.05439 14Z" fill="#CA3732"/>
</svg>
