<svg width="16" height="16" viewBox="0 0 16 16" fill="none" xmlns="http://www.w3.org/2000/svg">
<g clip-path="url(#clip0)">
<path d="M12.6666 8.03088C12.298 8.03088 12 8.32959 12 8.69751V14.0309C12 14.3982 11.7013 14.6975 11.3334 14.6975H2C1.63196 14.6975 1.33337 14.3982 1.33337 14.0309V4.69751C1.33337 4.3302 1.63196 4.03088 2 4.03088H7.33337C7.70203 4.03088 8 3.73218 8 3.36426C8 2.99622 7.70203 2.69751 7.33337 2.69751H2C0.897339 2.69751 0 3.59485 0 4.69751V14.0309C0 15.1335 0.897339 16.0309 2 16.0309H11.3334C12.436 16.0309 13.3334 15.1335 13.3334 14.0309V8.69751C13.3334 8.32886 13.0353 8.03088 12.6666 8.03088Z" fill="#004275"/>
<path d="M6.25051 7.42334C6.20388 7.46997 6.1725 7.5293 6.1592 7.59326L5.68789 9.95068C5.66591 10.0599 5.70058 10.1726 5.77919 10.252C5.84255 10.3153 5.92788 10.3492 6.01528 10.3492C6.03652 10.3492 6.05861 10.3473 6.08059 10.3427L8.43727 9.87134C8.50258 9.85791 8.56191 9.82666 8.60793 9.77991L13.8826 4.50525L11.5259 2.14868L6.25051 7.42334Z" fill="#004275"/>
<path d="M15.512 0.518768C14.8621 -0.131256 13.8047 -0.131256 13.1553 0.518768L12.2327 1.44138L14.5894 3.79807L15.512 2.87534C15.8267 2.56137 16 2.14267 16 1.69736C16 1.25204 15.8267 0.833344 15.512 0.518768Z" fill="#004275"/>
</g>
<defs>
<clipPath id="clip0">
<rect width="16" height="16" fill="white"/>
</clipPath>
</defs>
</svg>
